<?xml version="1.0" standalone="no"?>
<!DOCTYPE svg PUBLIC "-//W3C//DTD SVG 20010904//EN"
 "http://www.w3.org/TR/2001/REC-SVG-20010904/DTD/svg10.dtd">
<svg version="1.0" xmlns="http://www.w3.org/2000/svg"
 width="500.000000pt" height="500.000000pt" viewBox="0 0 500.000000 500.000000"
 preserveAspectRatio="xMidYMid meet">

<g transform="translate(0.000000,500.000000) scale(0.100000,-0.100000)"
fill="#000000" stroke="none">
<path d="M0 2500 l0 -2500 2500 0 2500 0 0 2500 0 2500 -2500 0 -2500 0 0
-2500z m2818 2220 c2 -6 19 -10 38 -10 46 0 196 -25 335 -55 116 -25 207 -59
222 -83 14 -21 151 -81 185 -80 22 1 47 -11 86 -40 57 -43 73 -51 60 -29 -5 6
7 -3 25 -21 18 -17 43 -35 57 -38 13 -3 24 -10 24 -15 0 -5 -17 -1 -37 10 -53
26 -87 36 -79 22 5 -8 0 -8 -18 1 -14 6 -26 17 -26 24 0 17 -57 46 -129 68
-67 20 -84 20 -51 1 50 -29 0 -14 -81 24 -46 22 -97 43 -113 47 -29 7 -29 7
-7 16 19 7 21 11 11 23 -17 20 -64 32 -155 40 -44 3 -90 13 -102 21 -30 19
-168 19 -206 -1 -21 -11 -35 -12 -54 -4 -15 5 -92 14 -172 19 -142 9 -147 8
-196 -15 -27 -13 -68 -26 -90 -29 -22 -3 -61 -10 -88 -14 -44 -8 -46 -8 -32 8
8 9 15 20 15 23 0 4 -36 7 -80 7 l-80 0 0 -29 c0 -20 8 -35 22 -45 22 -16 21
-16 -22 -16 -25 0 -65 -10 -90 -21 -25 -11 -58 -22 -74 -25 -15 -2 -35 -9 -44
-16 -13 -11 -14 -10 -8 10 9 28 6 27 -52 -2 -46 -24 -116 -86 -96 -86 6 0 14
4 20 8 5 5 27 19 49 32 l40 22 -30 -26 c-39 -35 -104 -66 -123 -58 -8 3 -13 1
-10 -4 4 -5 -5 -9 -18 -9 -20 0 -13 11 53 78 43 42 72 77 66 77 -7 0 -15 -4
-18 -10 -3 -5 -13 -10 -22 -10 -26 0 -98 -65 -133 -120 -31 -48 -63 -65 -73
-37 -4 12 -54 -33 -107 -98 -35 -42 -99 -88 -114 -82 -7 3 -21 -8 -30 -24 -14
-23 -21 -28 -31 -19 -10 9 -16 6 -25 -10 -6 -11 -9 -24 -6 -29 3 -4 -14 -18
-37 -31 -54 -30 -54 -30 -39 -39 9 -5 5 -14 -13 -31 -25 -23 -25 -23 -25 -2 0
12 -9 26 -19 32 -17 9 -22 2 -48 -69 -15 -43 -32 -79 -36 -79 -4 -1 -43 -54
-87 -119 -44 -65 -92 -136 -108 -158 -34 -48 -92 -175 -95 -207 -3 -28 -26
-72 -34 -64 -3 3 -1 12 6 20 9 11 7 15 -8 19 -16 4 -21 -3 -31 -42 -6 -25 -16
-85 -20 -134 -8 -85 -25 -152 -58 -230 -15 -34 -17 -36 -24 -17 -4 12 -3 30 3
41 13 26 2 43 -17 25 -16 -16 -20 -81 -4 -71 6 4 10 -8 11 -27 1 -18 3 -71 5
-118 2 -47 -2 -128 -8 -180 -14 -112 -13 -156 2 -175 6 -7 11 -29 11 -47 1
-28 17 -138 35 -226 3 -13 9 -20 15 -17 6 4 7 -8 3 -34 -5 -30 -2 -48 10 -66
10 -15 19 -50 22 -80 2 -29 11 -69 19 -89 8 -19 15 -45 15 -56 0 -11 3 -20 8
-20 4 0 6 21 5 47 -2 48 -2 48 8 14 6 -19 8 -43 5 -54 -3 -11 6 -42 20 -68 13
-27 20 -49 14 -49 -15 0 -12 -26 6 -41 9 -7 29 -40 46 -73 17 -34 37 -69 46
-78 8 -10 12 -18 8 -18 -15 0 26 -61 59 -87 19 -15 35 -32 35 -38 0 -5 31 -43
69 -84 38 -40 67 -79 65 -86 -3 -7 18 -33 45 -58 28 -25 51 -51 51 -59 0 -8
14 -25 31 -37 25 -18 33 -21 39 -10 6 10 12 6 20 -13 14 -29 184 -171 206
-171 8 0 14 -4 14 -8 0 -4 40 -27 88 -52 48 -25 96 -55 106 -66 10 -11 32 -23
48 -27 21 -4 27 -9 18 -14 -17 -11 57 -44 131 -59 51 -11 110 -40 82 -41 -6 0
-15 5 -18 10 -3 6 -16 10 -28 9 -15 0 -17 -2 -7 -6 8 -3 18 -10 21 -15 3 -5
26 -11 50 -12 70 -6 143 -28 158 -48 11 -16 20 -18 53 -13 21 4 51 2 66 -3 40
-15 120 -23 101 -10 -10 7 -2 8 26 3 22 -4 60 -8 85 -9 25 -1 67 -10 93 -19
52 -19 87 -22 87 -8 0 4 49 8 110 8 60 0 107 -3 105 -7 -2 -4 8 -5 23 -3 22 4
24 2 12 -7 -13 -9 -12 -10 5 -6 11 3 38 8 59 12 38 7 39 7 15 20 -29 16 -21
18 16 4 16 -6 24 -6 20 0 -3 5 7 12 22 15 15 3 45 10 65 16 21 5 75 12 120 15
83 5 168 28 168 45 0 4 -8 6 -17 3 -10 -2 20 14 65 36 64 31 88 38 102 30 14
-8 25 -4 48 15 17 14 33 25 37 25 4 0 30 20 57 45 30 26 60 45 74 45 13 0 38
13 56 29 18 15 58 46 89 67 55 39 297 284 355 359 17 22 42 61 57 86 14 26 35
49 47 52 11 3 23 13 26 24 4 10 14 26 22 36 8 9 11 17 7 17 -5 0 3 12 17 28
29 31 98 152 98 172 0 8 10 24 22 37 12 13 17 23 11 23 -6 0 8 44 32 98 51
116 101 276 111 352 3 30 15 86 25 125 11 38 19 77 19 86 0 20 50 99 62 99 14
0 9 -142 -7 -193 -10 -32 -11 -55 -5 -72 7 -19 -2 -61 -41 -187 -90 -291 -152
-438 -247 -583 -25 -38 -47 -72 -47 -75 -1 -3 -7 -18 -13 -33 -7 -16 -12 -31
-12 -35 0 -4 -16 -18 -35 -32 -19 -14 -33 -30 -30 -36 6 -17 -99 -137 -203
-231 -50 -46 -92 -83 -94 -83 -2 0 -27 -22 -56 -49 -60 -57 -176 -125 -197
-117 -8 3 -21 -4 -29 -16 -47 -66 -396 -238 -485 -238 -12 0 -21 -4 -21 -10 0
-5 -10 -10 -22 -10 -16 0 -19 -3 -10 -8 18 -12 -62 -35 -112 -33 -21 0 -59 -8
-83 -19 -50 -22 -66 -25 -43 -9 11 8 8 9 -15 4 -16 -4 -54 -6 -83 -5 -34 1
-52 -2 -48 -9 4 -6 -9 -13 -30 -17 -54 -10 -341 3 -464 20 -116 17 -297 66
-280 76 16 10 -35 29 -60 23 -16 -4 -18 -8 -8 -14 8 -5 -1 -7 -22 -4 -19 2
-56 7 -82 10 -27 4 -87 27 -145 57 -54 28 -125 64 -158 81 -75 38 -201 123
-223 152 -9 11 -41 34 -71 50 -29 16 -80 54 -114 85 -33 30 -86 79 -118 108
-31 29 -70 72 -86 95 -15 23 -54 73 -87 111 -32 38 -64 83 -71 100 -7 17 -28
49 -45 71 -57 70 -101 144 -126 213 -14 37 -30 72 -37 77 -14 12 -86 157 -97
196 -5 17 -4 31 3 39 9 8 7 15 -10 28 -21 16 -21 21 -13 86 5 41 5 79 -1 93
-5 13 -9 53 -9 88 0 44 -5 68 -15 79 -13 13 -16 55 -16 275 -1 271 5 343 26
361 7 6 11 19 8 30 -3 11 0 34 6 52 8 21 8 35 1 42 -14 14 -12 63 4 94 7 15
23 59 35 98 12 40 28 77 36 84 8 7 15 18 15 25 0 8 6 26 14 42 95 195 189 353
251 422 28 31 57 65 65 77 82 118 107 149 120 149 8 0 26 17 39 38 13 20 29
37 36 37 6 0 45 37 85 81 67 73 113 111 174 144 10 5 17 12 16 15 -6 9 20 50
31 50 6 0 7 -4 4 -10 -10 -17 5 -11 38 14 18 13 61 38 97 56 36 18 95 50 131
71 45 26 112 51 200 75 74 20 135 40 137 45 2 5 36 18 75 29 40 12 79 24 87
28 8 3 49 14 90 24 64 15 108 17 310 12 139 -3 236 -9 238 -14z m141 -96 c2
-2 -12 -4 -32 -4 -20 0 -37 4 -37 10 0 8 58 3 69 -6z m58 -30 c-3 -3 -12 -4
-19 -1 -8 3 -5 6 6 6 11 1 17 -2 13 -5z m238 -19 c39 -17 21 -18 -25 0 -19 7
-28 14 -20 14 8 0 29 -6 45 -14z m245 -24 c0 -5 -9 -7 -20 -4 -11 3 -20 7 -20
9 0 2 9 4 20 4 11 0 20 -4 20 -9z m326 -216 c10 -8 14 -15 8 -15 -5 0 -19 7
-30 15 -10 8 -14 15 -8 15 5 0 19 -7 30 -15z m-806 -23 c284 -62 534 -165 762
-315 325 -215 580 -588 688 -1011 47 -185 55 -248 54 -451 0 -210 -16 -314
-75 -490 -58 -172 -206 -438 -309 -555 -17 -19 -2 7 32 59 149 227 247 479
284 731 30 210 9 536 -49 729 -15 48 -21 46 -31 -13 -4 -21 -11 -35 -15 -30
-5 5 -27 52 -50 104 -110 249 -284 494 -451 633 -259 216 -500 339 -824 422
-350 89 -685 85 -981 -11 -110 -36 -283 -121 -385 -188 -47 -30 -69 -42 -50
-25 119 103 341 227 514 284 162 55 264 69 486 69 244 1 405 -26 655 -109 205
-68 481 -219 630 -345 30 -25 20 -13 -25 31 -162 159 -482 338 -741 413 -275
79 -642 82 -939 6 -212 -54 -444 -162 -640 -297 -36 -24 -51 -33 -35 -18 52
46 205 143 306 195 200 103 409 166 674 204 17 2 118 3 225 1 151 -2 217 -7
290 -23z m-1510 -21 c0 -5 -7 -12 -16 -15 -24 -9 -28 -7 -14 9 14 17 30 20 30
6z m2461 -87 c31 -29 50 -32 23 -3 -19 21 -19 21 13 16 40 -6 50 -13 64 -40 9
-18 6 -17 -20 8 l-31 29 6 -32 c10 -50 -3 -44 -132 56 l-29 22 40 -15 c22 -9
51 -27 66 -41z m190 -124 c10 -6 19 -15 19 -20 0 -17 -26 -11 -45 10 -20 22
-7 27 26 10z m148 -115 c-3 -2 -16 10 -29 28 l-23 32 29 -27 c15 -15 26 -30
23 -33z m-54 25 c10 -11 16 -20 13 -20 -3 0 -13 9 -23 20 -10 11 -16 20 -13
20 3 0 13 -9 23 -20z m-3191 -39 c3 -5 -1 -14 -9 -21 -13 -10 -15 -9 -15 9 0
21 14 28 24 12z m3211 -41 c10 -11 16 -20 13 -20 -3 0 -13 9 -23 20 -10 11
-16 20 -13 20 3 0 13 -9 23 -20z m-2785 -3 c0 -2 -10 -12 -22 -23 l-23 -19 19
23 c18 21 26 27 26 19z m2940 -220 c0 -5 -4 -5 -10 -2 -5 3 -10 14 -10 23 0
15 2 15 10 2 5 -8 10 -19 10 -23z m-3114 -100 c-172 -233 -280 -479 -327 -744
-19 -107 -23 -164 -24 -348 0 -241 14 -335 74 -505 71 -201 261 -448 481 -626
208 -168 657 -398 850 -435 36 -6 78 -15 95 -19 l30 -6 -28 -28 c-33 -33 -38
-32 -212 25 -292 97 -647 318 -904 564 -112 106 -105 86 21 -62 205 -243 538
-436 944 -550 96 -27 107 -28 339 -27 214 1 256 4 385 27 337 61 468 110 679
251 126 84 135 83 23 -2 -225 -171 -378 -237 -687 -296 -284 -54 -545 -64
-735 -27 -194 38 -421 123 -592 222 -202 117 -424 319 -533 484 -92 140 -178
323 -228 485 -134 433 -154 558 -127 780 35 280 122 533 254 735 31 47 58 85
61 85 2 0 -12 -26 -32 -57 -54 -85 -138 -266 -172 -373 -89 -277 -110 -497
-69 -715 l13 -70 6 175 c7 196 29 321 84 486 41 123 133 309 209 422 53 79
164 222 172 222 2 0 -20 -33 -50 -73z m3174 42 c0 -6 -4 -7 -10 -4 -5 3 -10
11 -10 16 0 6 5 7 10 4 6 -3 10 -11 10 -16z m140 -184 c0 -5 -5 -3 -10 5 -5 8
-10 20 -10 25 0 6 5 3 10 -5 5 -8 10 -19 10 -25z m14 -81 c3 -8 2 -12 -4 -9
-6 3 -10 10 -10 16 0 14 7 11 14 -7z m-3987 -76 c-3 -8 -6 -5 -6 6 -1 11 2 17
5 13 3 -3 4 -12 1 -19z m-17 -55 c-11 -17 -11 -17 -6 0 3 10 6 24 7 30 0 9 2
9 5 0 3 -7 0 -20 -6 -30z m2240 -28 c0 -43 1 -45 30 -45 27 0 30 3 30 30 0 27
3 30 29 30 17 0 32 -4 35 -9 13 -20 -79 -655 -134 -931 -71 -354 -131 -513
-217 -570 -88 -60 -187 -98 -208 -80 -9 7 -27 8 -56 1 -60 -12 -116 -12 -160
-1 -46 13 -99 70 -99 108 0 39 -8 47 -72 75 -47 21 -58 30 -58 49 0 21 4 24
35 20 34 -4 35 -3 35 29 0 61 -19 202 -29 212 -6 6 -3 27 6 56 19 55 30 71 51
71 9 0 33 12 53 26 26 18 47 24 71 22 31 -3 33 -5 41 -55 7 -43 12 -53 28 -53
21 0 26 29 8 47 -18 18 -3 43 25 43 18 0 25 -6 28 -22 2 -15 11 -24 26 -26 21
-3 22 -6 15 -55 -13 -88 -8 -192 11 -221 9 -14 20 -26 24 -26 4 0 19 35 33 77
l25 77 39 0 c39 1 40 2 62 57 32 80 76 312 118 614 57 417 66 479 71 487 3 4
27 8 55 8 l49 0 0 -45z m1853 -185 c3 -11 1 -18 -4 -14 -5 3 -9 12 -9 20 0 20
7 17 13 -6z m-348 -123 c8 -20 13 -37 10 -37 -7 0 -35 57 -35 71 0 18 7 8 25
-34z m-1808 -559 c-2 -13 -4 -5 -4 17 -1 22 1 32 4 23 2 -10 2 -28 0 -40z m-7
-60 c0 -6 7 -19 16 -29 19 -21 11 -39 -18 -39 -17 0 -18 -2 -8 -15 11 -13 9
-20 -11 -42 l-24 -25 23 6 c31 10 29 -11 -3 -26 -14 -6 -28 -9 -31 -5 -5 5 20
149 31 185 5 15 25 7 25 -10z m1300 -1072 c0 -2 -8 -10 -17 -17 -16 -13 -17
-12 -4 4 13 16 21 21 21 13z m-567 -653 c-7 -2 -19 -2 -25 0 -7 3 -2 5 12 5
14 0 19 -2 13 -5z m-416 -89 c-3 -3 -12 -4 -19 -1 -8 3 -5 6 6 6 11 1 17 -2
13 -5z"/>
<path d="M680 1712 c6 -13 14 -21 18 -18 3 4 -2 14 -12 24 -18 16 -18 16 -6
-6z"/>
<path d="M3960 3756 c0 -2 8 -10 18 -17 15 -13 16 -12 3 4 -13 16 -21 21 -21
13z"/>
<path d="M2070 2181 c0 -28 5 -51 10 -51 6 0 10 20 10 44 0 25 -4 48 -10 51
-6 4 -10 -13 -10 -44z"/>
</g>
</svg>
